<?xml version="1.0" encoding="utf-8"?>
<!-- Generator: Adobe Illustrator 19.0.0, SVG Export Plug-In . SVG Version: 6.00 Build 0)  -->
<svg version="1.1" id="Capa_1" xmlns="http://www.w3.org/2000/svg" xmlns:xlink="http://www.w3.org/1999/xlink" x="0px" y="0px"
	 viewBox="-409 211 140 140" style="enable-background:new -409 211 140 140;" xml:space="preserve">
<style type="text/css">
	.st0{fill:#1C1C1A;}
	.st1{fill:#0099D3;}
</style>
<g>
	<path class="st0" d="M-34.8,305.8c-18.3-18.3-42.7-28.4-68.7-28.4s-50.4,10.1-68.7,28.4c-1,1-1,2.6,0,3.6c1,1,2.6,1,3.6,0
		c17.4-17.4,40.5-26.9,65.1-26.9s47.8,9.6,65.1,26.9c0.5,0.5,1.1,0.7,1.8,0.7c0.6,0,1.3-0.2,1.8-0.7
		C-33.8,308.4-33.8,306.8-34.8,305.8z"/>
	<path class="st0" d="M-157.3,320.7c-1,1-1,2.6,0,3.6c0.5,0.5,1.1,0.7,1.8,0.7c0.6,0,1.3-0.2,1.8-0.7c27.7-27.7,72.8-27.7,100.5,0
		c1,1,2.6,1,3.6,0c1-1,1-2.6,0-3.6C-79.3,291-127.7,291-157.3,320.7z"/>
	<path class="st0" d="M-103.5,319.4c-14.7,0-28.6,5.7-39,16.1c-1,1-1,2.6,0,3.6c1,1,2.6,1,3.6,0c9.4-9.4,22-14.6,35.4-14.6
		s26,5.2,35.4,14.6c0.5,0.5,1.1,0.7,1.8,0.7c0.6,0,1.3-0.2,1.8-0.7c1-1,1-2.6,0-3.6C-74.9,325.1-88.8,319.4-103.5,319.4z"/>
	<path class="st0" d="M-103.5,343.2c-9.1,0-16.6,7.4-16.6,16.6c0,9.1,7.4,16.6,16.6,16.6c9.1,0,16.6-7.4,16.6-16.6
		C-86.9,350.6-94.4,343.2-103.5,343.2z M-103.5,371.3c-6.4,0-11.5-5.2-11.5-11.5c0-6.4,5.2-11.5,11.5-11.5c6.3,0,11.5,5.2,11.5,11.5
		C-92,366.1-97.1,371.3-103.5,371.3z"/>
</g>
<g>
	<path class="st1" d="M-274.2,261.1c-17.3-17.3-40.3-26.8-64.8-26.8c-24.5,0-47.5,9.5-64.8,26.8c-0.9,0.9-0.9,2.4,0,3.4
		c0.9,0.9,2.4,0.9,3.4,0c16.4-16.4,38.2-25.4,61.4-25.4c23.2,0,45,9,61.4,25.4c0.5,0.5,1.1,0.7,1.7,0.7c0.6,0,1.2-0.2,1.7-0.7
		C-273.3,263.6-273.3,262.1-274.2,261.1z"/>
	<path class="st1" d="M-389.8,275.1c-0.9,0.9-0.9,2.4,0,3.4c0.5,0.5,1.1,0.7,1.7,0.7c0.6,0,1.2-0.2,1.7-0.7
		c26.1-26.1,68.7-26.1,94.8,0c0.9,0.9,2.4,0.9,3.4,0c0.9-0.9,0.9-2.4,0-3.4C-316.2,247.1-361.8,247.1-389.8,275.1z"/>
	<path class="st1" d="M-339,274c-13.9,0-26.9,5.4-36.8,15.2c-0.9,0.9-0.9,2.4,0,3.4c0.9,0.9,2.4,0.9,3.4,0
		c8.9-8.9,20.8-13.8,33.4-13.8c12.6,0,24.5,4.9,33.4,13.8c0.5,0.5,1.1,0.7,1.7,0.7c0.6,0,1.2-0.2,1.7-0.7c0.9-0.9,0.9-2.4,0-3.4
		C-312.1,279.4-325.1,274-339,274z"/>
	<path class="st1" d="M-339,296.4c-8.6,0-15.6,7-15.6,15.6c0,8.6,7,15.6,15.6,15.6c8.6,0,15.6-7,15.6-15.6
		C-323.4,303.4-330.4,296.4-339,296.4z M-339,322.9c-6,0-10.9-4.9-10.9-10.9c0-6,4.9-10.9,10.9-10.9c6,0,10.9,4.9,10.9,10.9
		C-328.1,318-333,322.9-339,322.9z"/>
</g>
</svg>
